<svg xmlns="http://www.w3.org/2000/svg" width="47" height="48" viewBox="0 0 47 48">
  <g id="insta" transform="translate(-0.127 0.423)">
    <ellipse id="Elipse_3" data-name="Elipse 3" cx="23.5" cy="24" rx="23.5" ry="24" transform="translate(0.127 -0.423)" fill="#5405c4"/>
    <path id="Icon_awesome-instagram" data-name="Icon awesome-instagram" d="M13.125,8.632a6.73,6.73,0,1,0,6.73,6.73A6.719,6.719,0,0,0,13.125,8.632Zm0,11.105A4.375,4.375,0,1,1,17.5,15.362a4.383,4.383,0,0,1-4.375,4.375ZM21.7,8.357a1.57,1.57,0,1,1-1.57-1.57A1.566,1.566,0,0,1,21.7,8.357ZM26.158,9.95a7.768,7.768,0,0,0-2.12-5.5,7.819,7.819,0,0,0-5.5-2.12c-2.167-.123-8.663-.123-10.83,0a7.808,7.808,0,0,0-5.5,2.114,7.794,7.794,0,0,0-2.12,5.5c-.123,2.167-.123,8.663,0,10.83a7.768,7.768,0,0,0,2.12,5.5,7.829,7.829,0,0,0,5.5,2.12c2.167.123,8.663.123,10.83,0a7.768,7.768,0,0,0,5.5-2.12,7.819,7.819,0,0,0,2.12-5.5c.123-2.167.123-8.657,0-10.824Zm-2.8,13.15a4.43,4.43,0,0,1-2.5,2.5c-1.728.685-5.828.527-7.737.527s-6.015.152-7.737-.527a4.43,4.43,0,0,1-2.5-2.5c-.685-1.728-.527-5.828-.527-7.737s-.152-6.015.527-7.737a4.43,4.43,0,0,1,2.5-2.5c1.728-.685,5.828-.527,7.737-.527s6.015-.152,7.737.527a4.43,4.43,0,0,1,2.5,2.5c.685,1.728.527,5.828.527,7.737S24.043,21.378,23.358,23.1Z" transform="translate(10.455 8.215)" fill="#fff"/>
  </g>
</svg>
