<svg xmlns="http://www.w3.org/2000/svg" width="48" height="48" viewBox="0 0 48 48">
  <g id="linkedin" transform="translate(0.464 0.423)">
    <circle id="Elipse_4" data-name="Elipse 4" cx="24" cy="24" r="24" transform="translate(-0.464 -0.423)" fill="#5405c4"/>
    <path id="Icon_awesome-linkedin-in" data-name="Icon awesome-linkedin-in" d="M5.773,25.792H.426V8.572H5.773ZM3.1,6.223A3.111,3.111,0,1,1,6.193,3.1,3.123,3.123,0,0,1,3.1,6.223ZM25.786,25.792H20.45V17.409c0-2-.04-4.56-2.78-4.56-2.78,0-3.206,2.17-3.206,4.416v8.526H9.123V8.572h5.128v2.349h.075a5.619,5.619,0,0,1,5.059-2.781c5.412,0,6.406,3.564,6.406,8.192v9.459Z" transform="translate(11.461 9.988)" fill="#fff"/>
  </g>
</svg>
