<svg xmlns="http://www.w3.org/2000/svg" width="47" height="48" viewBox="0 0 47 48">
  <g id="twitteer" transform="translate(-0.028 0.423)">
    <path id="Caminho_90" data-name="Caminho 90" d="M23.5,0A23.754,23.754,0,0,1,47,24,23.754,23.754,0,0,1,23.5,48,23.754,23.754,0,0,1,0,24,23.754,23.754,0,0,1,23.5,0Z" transform="translate(0.028 -0.423)" fill="#5405c4"/>
    <path id="Icon_awesome-twitter" data-name="Icon awesome-twitter" d="M26.216,9.3c.019.26.019.519.019.779,0,7.917-6.026,17.039-17.039,17.039A16.923,16.923,0,0,1,0,24.424a12.389,12.389,0,0,0,1.446.074A11.993,11.993,0,0,0,8.881,21.94a6,6,0,0,1-5.6-4.153,7.552,7.552,0,0,0,1.131.093,6.334,6.334,0,0,0,1.576-.2,5.989,5.989,0,0,1-4.8-5.877v-.074a6.031,6.031,0,0,0,2.707.76,6,6,0,0,1-1.854-8.01,17.022,17.022,0,0,0,12.348,6.267,6.76,6.76,0,0,1-.148-1.372A5.994,5.994,0,0,1,24.6,5.272a11.791,11.791,0,0,0,3.8-1.446,5.972,5.972,0,0,1-2.633,3.3A12.005,12.005,0,0,0,29.22,6.2a12.873,12.873,0,0,1-3,3.1Z" transform="translate(10.519 9.591)" fill="#fff"/>
  </g>
</svg>
